<svg xmlns="http://www.w3.org/2000/svg" xmlns:xlink="http://www.w3.org/1999/xlink" xmlns:lucid="lucid" width="828" height="2280"><g transform="translate(8 0)" lucid:page-tab-id="0_0"><path d="M0 0h1760v2656H0z" fill="#fff"/><path d="M407.33 26a6 6 0 0 1 6-6h148a6 6 0 0 1 6 6v114c-26.72-20.04-43.36-20.04-53.44-20.04-16 0-37.3 20.04-53.3 20.04-9.9 0-26.7 0-53.27-20.04z" stroke="#5e5e5e" stroke-width="3" fill="#00c2a8"/><use xlink:href="#a" transform="matrix(1,0,0,1,412.33330290291224,25) translate(4.074074074074076 37.46527777777778)"/><use xlink:href="#b" transform="matrix(1,0,0,1,412.33330290291224,25) translate(92.90123456790123 37.46527777777778)"/><use xlink:href="#c" transform="matrix(1,0,0,1,412.33330290291224,25) translate(15.833333333333336 64.13194444444446)"/><use xlink:href="#d" transform="matrix(1,0,0,1,412.33330290291224,25) translate(81.2037037037037 64.13194444444446)"/><path d="M640 1037.44a6 6 0 0 1 6-6h148a6 6 0 0 1 6 6v114c-26.72-20.04-43.36-20.04-53.44-20.04-16 0-37.28 20.04-53.28 20.04-9.92 0-26.72 0-53.28-20.04z" stroke="#5e5e5e" stroke-width="3" fill="#c3f7c8"/><use xlink:href="#e" transform="matrix(1,0,0,1,645,1036.4427846953795) translate(28.148148148148145 37.46527777777778)"/><use xlink:href="#d" transform="matrix(1,0,0,1,645,1036.4427846953795) translate(48.51851851851852 64.13194444444446)"/><path d="M180 610a6 6 0 0 1 6-6h148a6 6 0 0 1 6 6v114c-26.72-20.04-43.36-20.04-53.44-20.04-16 0-37.28 20.04-53.28 20.04-9.92 0-26.72 0-53.28-20.04z" stroke="#5e5e5e" stroke-width="3" fill="#00c2a8"/><use xlink:href="#f" transform="matrix(1,0,0,1,185,609) translate(28.179012345679006 37.46527777777778)"/><use xlink:href="#d" transform="matrix(1,0,0,1,185,609) translate(48.51851851851852 64.13194444444446)"/><path d="M407.33 206a6 6 0 0 1 6-6h148a6 6 0 0 1 6 6v68a6 6 0 0 1-6 6h-148a6 6 0 0 1-6-6z" stroke="#5e5e5e" stroke-width="3" fill="#fff7a1"/><path d="M427.33 200v80m120-80v80" stroke="#5e5e5e" stroke-width="3" fill="none"/><use xlink:href="#g" transform="matrix(1,0,0,1,443.33330290291224,212) translate(-7.203703703703702 19.111111111111114)"/><use xlink:href="#h" transform="matrix(1,0,0,1,443.33330290291224,212) translate(8.845679012345677 45.777777777777786)"/><path d="M437.8 377.8a7.8 7.8 0 0 1 7.53-5.8h116a4.6 4.6 0 0 1 4.46 5.8l-28.92 108.4a7.8 7.8 0 0 1-7.55 5.8h-116a4.6 4.6 0 0 1-4.45-5.8z" stroke="#5e5e5e" stroke-width="3" fill="#cfe4ff"/><use xlink:href="#i" transform="matrix(1,0,0,1,412.33330290291224,377) translate(23.042037037037044 45.27777777777778)"/><use xlink:href="#b" transform="matrix(1,0,0,1,412.33330290291224,377) translate(80.94327160493827 45.27777777777778)"/><use xlink:href="#h" transform="matrix(1,0,0,1,412.33330290291224,377) translate(36.35067901234567 71.94444444444446)"/><path d="M380 610a6 6 0 0 1 6-6h148a6 6 0 0 1 6 6v108a6 6 0 0 1-6 6H386a6 6 0 0 1-6-6z" stroke="#5e5e5e" stroke-width="3" fill="#fff7a1"/><path d="M396 604v120m128-120v120" stroke="#5e5e5e" stroke-width="3" fill="none"/><use xlink:href="#j" transform="matrix(1,0,0,1,405,609) translate(34.660493827160494 46.111111111111114)"/><use xlink:href="#k" transform="matrix(1,0,0,1,405,609) translate(19.845679012345684 72.77777777777777)"/><path d="M410.45 825.8A7.8 7.8 0 0 1 418 820h116a4.6 4.6 0 0 1 4.45 5.8l-28.9 108.4A7.8 7.8 0 0 1 502 940H386a4.6 4.6 0 0 1-4.45-5.8z" stroke="#5e5e5e" stroke-width="3" fill="#cfe4ff"/><use xlink:href="#l" transform="matrix(1,0,0,1,385,825) translate(43.35067901234568 45.27777777777778)"/><use xlink:href="#m" transform="matrix(1,0,0,1,385,825) translate(34.529691358024685 71.94444444444446)"/><path d="M407.33 1042a6 6 0 0 1 6-6h148a6 6 0 0 1 6 6v108a6 6 0 0 1-6 6h-148a6 6 0 0 1-6-6z" stroke="#5e5e5e" stroke-width="3" fill="#fff7a1"/><path d="M423.33 1036v120m128-120v120" stroke="#5e5e5e" stroke-width="3" fill="none"/><use xlink:href="#n" transform="matrix(1,0,0,1,439.33330290291224,1048) translate(-1.845679012345684 25.77777777777778)"/><use xlink:href="#o" transform="matrix(1,0,0,1,439.33330290291224,1048) translate(12.845679012345684 52.44444444444445)"/><use xlink:href="#m" transform="matrix(1,0,0,1,439.33330290291224,1048) translate(11.02469135802469 79.11111111111111)"/><path d="M437.8 1257.8a7.8 7.8 0 0 1 7.53-5.8h116a4.6 4.6 0 0 1 4.46 5.8l-28.92 108.4a7.8 7.8 0 0 1-7.55 5.8h-116a4.6 4.6 0 0 1-4.45-5.8z" stroke="#5e5e5e" stroke-width="3" fill="#cfe4ff"/><use xlink:href="#p" transform="matrix(1,0,0,1,412.33330290291224,1257) translate(22.486481481481473 45.27777777777778)"/><use xlink:href="#m" transform="matrix(1,0,0,1,412.33330290291224,1257) translate(34.529691358024685 71.94444444444446)"/><path d="M487.33 1158.5v73.5" stroke="#5e5e5e" stroke-width="2" fill="none"/><path d="M488.33 1158.53h-2v-1.03h2z" stroke="#5e5e5e" stroke-width=".05" fill="#5e5e5e"/><path d="M487.33 1247.26L482.7 1233h9.27z" stroke="#5e5e5e" stroke-width="2" fill="#5e5e5e"/><path d="M180 1482a6 6 0 0 1 6-6h148a6 6 0 0 1 6 6v108a6 6 0 0 1-6 6H186a6 6 0 0 1-6-6z" stroke="#5e5e5e" stroke-width="3" fill="#fff7a1"/><path d="M196 1476v120m128-120v120" stroke="#5e5e5e" stroke-width="3" fill="none"/><use xlink:href="#q" transform="matrix(1,0,0,1,212,1488) translate(12.228395061728392 25.77777777777778)"/><use xlink:href="#r" transform="matrix(1,0,0,1,212,1488) translate(28.95679012345679 52.44444444444445)"/><use xlink:href="#s" transform="matrix(1,0,0,1,212,1488) translate(-9.901234567901241 79.11111111111111)"/><path d="M210.45 1685.8a7.8 7.8 0 0 1 7.55-5.8h116a4.6 4.6 0 0 1 4.45 5.8l-28.9 108.4a7.8 7.8 0 0 1-7.55 5.8H186a4.6 4.6 0 0 1-4.45-5.8z" stroke="#5e5e5e" stroke-width="3" fill="#cfe4ff"/><use xlink:href="#t" transform="matrix(1,0,0,1,185,1685) translate(63.461790123456794 31.52777777777778)"/><use xlink:href="#u" transform="matrix(1,0,0,1,185,1685) translate(36.67783950617284 58.19444444444445)"/><use xlink:href="#m" transform="matrix(1,0,0,1,185,1685) translate(31.529691358024685 84.86111111111111)"/><path d="M588 1700c17.67 0 32 17.9 32 40s-14.33 40-32 40h-96c-17.67 0-32-17.9-32-40s14.33-40 32-40z" stroke="#5e5e5e" stroke-width="3" fill="#ff8f8f"/><use xlink:href="#v" transform="matrix(1,0,0,1,465,1705) translate(29.974135802469128 26.52777777777778)"/><use xlink:href="#m" transform="matrix(1,0,0,1,465,1705) translate(38.029691358024685 53.19444444444445)"/><path d="M12 1986a6 6 0 0 1 6-6h148a6 6 0 0 1 6 6v108a6 6 0 0 1-6 6H18a6 6 0 0 1-6-6z" stroke="#5e5e5e" stroke-width="3" fill="#fff7a1"/><path d="M28 1980v120m128-120v120" stroke="#5e5e5e" stroke-width="3" fill="none"/><use xlink:href="#w" transform="matrix(1,0,0,1,44,1992) translate(19.111111111111114 17.77777777777778)"/><use xlink:href="#x" transform="matrix(1,0,0,1,44,1992) translate(20.870370370370374 44.44444444444444)"/><use xlink:href="#y" transform="matrix(1,0,0,1,44,1992) translate(25.839506172839506 71.11111111111111)"/><use xlink:href="#z" transform="matrix(1,0,0,1,44,1992) translate(24.574074074074073 97.77777777777777)"/><path d="M460 1866a6 6 0 0 1 6-6h148a6 6 0 0 1 6 6v108a6 6 0 0 1-6 6H466a6 6 0 0 1-6-6z" stroke="#5e5e5e" stroke-width="3" fill="#fff7a1"/><path d="M476 1860v120m128-120v120" stroke="#5e5e5e" stroke-width="3" fill="none"/><use xlink:href="#l" transform="matrix(1,0,0,1,492,1872) translate(12.845679012345684 25.77777777777778)"/><use xlink:href="#A" transform="matrix(1,0,0,1,492,1872) translate(19.111111111111114 52.44444444444445)"/><use xlink:href="#B" transform="matrix(1,0,0,1,492,1872) translate(20.870370370370374 79.11111111111111)"/><path d="M328 2100c17.67 0 32 17.9 32 40s-14.33 40-32 40h-96c-17.67 0-32-17.9-32-40s14.33-40 32-40z" stroke="#5e5e5e" stroke-width="3" fill="#ff8f8f"/><use xlink:href="#C" transform="matrix(1,0,0,1,205,2105) translate(12.65932098765432 26.52777777777778)"/><use xlink:href="#D" transform="matrix(1,0,0,1,205,2105) translate(94.1408024691358 26.52777777777778)"/><use xlink:href="#E" transform="matrix(1,0,0,1,205,2105) translate(43.58524691358024 53.19444444444445)"/><path d="M93 1960h-2v-121.27h2zm100.45-219h-95.4l-.83.07-.76.18-.73.3-.67.4-.6.52-.5.6-.4.66-.3.73-.2.76-.06.82v71.36h-2v-71.44l.08-1.06.26-1.06.42-1.02.57-.94.72-.83.83-.72.94-.57 1.02-.42 1.06-.26 1.06-.08h95.5z" stroke="#5e5e5e" stroke-width=".05" fill="#5e5e5e"/><path d="M194.18 1741h-.76v-2h1.3z" fill="#5e5e5e"/><path d="M194.2 1741.03h-.8v-2.06h1.35zm-.75-2v1.94h.7l.53-1.94z" stroke="#5e5e5e" stroke-width=".05" fill="#5e5e5e"/><path d="M92 1975.26L87.36 1961h9.28z" fill="#5e5e5e"/><path d="M92 1978.5l-6-18.5h12zm-3.26-16.5l3.26 10.03 3.26-10.03z" stroke="#5e5e5e" stroke-width=".05" fill="#5e5e5e"/><use xlink:href="#F" transform="matrix(1,0,0,1,60.913580246913575,1817.4012915705844) translate(0 14.222222222222223)"/><path d="M440 1919v2h-58.22v-2zm-131.07-9.67h-2v-108.98h2z" stroke="#5e5e5e" stroke-width=".05" fill="#5e5e5e"/><path d="M308.93 1800.38h-2v-.3l.74-.5.92-.8.33-.4z" fill="#5e5e5e"/><path d="M308.96 1800.4h-2.05v-.34l.76-.5.9-.8.4-.44zm-.35-1.6l-.9.8-.74.5v.25h1.95v-1.9z" stroke="#5e5e5e" stroke-width=".05" fill="#5e5e5e"/><path d="M455.26 1920l-14.26 4.63v-9.27z" fill="#5e5e5e"/><path d="M458.5 1920l-18.5 6v-12zm-16.5 3.26l10.03-3.26-10.03-3.26z" stroke="#5e5e5e" stroke-width=".05" fill="#5e5e5e"/><use xlink:href="#G" transform="matrix(1,0,0,1,303.408287779622,1909.3333333333333) translate(0 14.222222222222223)"/><path d="M140 2180c17.67 0 32 17.9 32 40s-14.33 40-32 40H44c-17.67 0-32-17.9-32-40s14.33-40 32-40z" stroke="#5e5e5e" stroke-width="3" fill="#ff8f8f"/><use xlink:href="#H" transform="matrix(1,0,0,1,17,2185) translate(11.116111111111104 26.52777777777778)"/><use xlink:href="#I" transform="matrix(1,0,0,1,17,2185) translate(64.14080246913579 26.52777777777778)"/><use xlink:href="#J" transform="matrix(1,0,0,1,17,2185) translate(42.35067901234567 53.19444444444445)"/><path d="M92 2102.5v57.5" stroke="#5e5e5e" stroke-width="2" fill="none"/><path d="M93 2102.53h-2v-1.03h2z" stroke="#5e5e5e" stroke-width=".05" fill="#5e5e5e"/><path d="M92 2175.26L87.36 2161h9.28z" stroke="#5e5e5e" stroke-width="2" fill="#5e5e5e"/><path d="M588 2060c17.67 0 32 17.9 32 40s-14.33 40-32 40h-96c-17.67 0-32-17.9-32-40s14.33-40 32-40z" stroke="#5e5e5e" stroke-width="3" fill="#ff8f8f"/><use xlink:href="#K" transform="matrix(1,0,0,1,465,2065) translate(7.875370370370385 24.34027777777778)"/><use xlink:href="#A" transform="matrix(1,0,0,1,465,2065) translate(84.35685185185186 24.34027777777778)"/><use xlink:href="#L" transform="matrix(1,0,0,1,465,2065) translate(1.8568518518518522 51.00694444444445)"/><use xlink:href="#M" transform="matrix(1,0,0,1,465,2065) translate(62.288950617283945 51.00694444444445)"/><path d="M540 1982.5v57.5" stroke="#5e5e5e" stroke-width="2" fill="none"/><path d="M541 1982.53h-2v-1.03h2z" stroke="#5e5e5e" stroke-width=".05" fill="#5e5e5e"/><path d="M540 2055.26l-4.63-14.26h9.26z" stroke="#5e5e5e" stroke-width="2" fill="#5e5e5e"/><path d="M487.33 1374.5V1530a6 6 0 0 1-6 6H360" stroke="#5e5e5e" stroke-width="2" fill="none"/><path d="M488.33 1374.53h-2v-1.03h2z" stroke="#5e5e5e" stroke-width=".05" fill="#5e5e5e"/><path d="M344.74 1536l14.26-4.63v9.27z" stroke="#5e5e5e" stroke-width="2" fill="#5e5e5e"/><path d="M260 1598.5v61.5" stroke="#5e5e5e" stroke-width="2" fill="none"/><path d="M261 1598.53h-2v-1.03h2z" stroke="#5e5e5e" stroke-width=".05" fill="#5e5e5e"/><path d="M260 1675.26l-4.63-14.26h9.26z" stroke="#5e5e5e" stroke-width="2" fill="#5e5e5e"/><path d="M281 2080h-2v-277.5h2z" stroke="#5e5e5e" stroke-width=".05" fill="#5e5e5e"/><path d="M281 1802.53h-2v-1.03h2z" fill="#5e5e5e"/><path d="M281.02 1802.55h-2.04v-1.08h2.04zm-2-1.02v.97h1.96v-.97z" stroke="#5e5e5e" stroke-width=".05" fill="#5e5e5e"/><path d="M280 2095.26l-4.63-14.26h9.26z" fill="#5e5e5e"/><path d="M280 2098.5l-6-18.5h12zm-3.26-16.5l3.26 10.03 3.26-10.03z" stroke="#5e5e5e" stroke-width=".05" fill="#5e5e5e"/><path d="M487.33 132.44V180" stroke="#5e5e5e" stroke-width="2" fill="none"/><path d="M488.33 132.47h-2v-.52l2-1z" stroke="#5e5e5e" stroke-width=".05" fill="#5e5e5e"/><path d="M487.33 195.26L482.7 181h9.27z" stroke="#5e5e5e" stroke-width="2" fill="#5e5e5e"/><path d="M487.33 282.5V352" stroke="#5e5e5e" stroke-width="2" fill="none"/><path d="M488.33 282.53h-2v-1.03h2z" stroke="#5e5e5e" stroke-width=".05" fill="#5e5e5e"/><path d="M487.33 367.26L482.7 353h9.27z" stroke="#5e5e5e" stroke-width="2" fill="#5e5e5e"/><path d="M487.33 494.5V584" stroke="#5e5e5e" stroke-width="2" fill="none"/><path d="M488.33 494.53h-2v-1.03h2z" stroke="#5e5e5e" stroke-width=".05" fill="#5e5e5e"/><path d="M487.33 599.26L482.7 585h9.27z" stroke="#5e5e5e" stroke-width="2" fill="#5e5e5e"/><path d="M460 726.5V800" stroke="#5e5e5e" stroke-width="2" fill="none"/><path d="M461 726.53h-2v-1.03h2z" stroke="#5e5e5e" stroke-width=".05" fill="#5e5e5e"/><path d="M460 815.26L455.37 801h9.26z" stroke="#5e5e5e" stroke-width="2" fill="#5e5e5e"/><path d="M460 942.5v73.5" stroke="#5e5e5e" stroke-width="2" fill="none"/><path d="M461 942.53h-2v-1.03h2z" stroke="#5e5e5e" stroke-width=".05" fill="#5e5e5e"/><path d="M460 1031.26l-4.63-14.26h9.26z" stroke="#5e5e5e" stroke-width="2" fill="#5e5e5e"/><path d="M342.5 664H360" stroke="#5e5e5e" stroke-width="2" fill="none"/><path d="M342.53 665h-1.03v-2h1.03z" stroke="#5e5e5e" stroke-width=".05" fill="#5e5e5e"/><path d="M375.26 664L361 668.63v-9.26z" stroke="#5e5e5e" stroke-width="2" fill="#5e5e5e"/><path d="M260 716.44V1456" stroke="#5e5e5e" stroke-width="2" fill="none"/><path d="M261 716.47h-2v-.52l2-1z" stroke="#5e5e5e" stroke-width=".05" fill="#5e5e5e"/><path d="M260 1471.26l-4.63-14.26h9.26z" stroke="#5e5e5e" stroke-width="2" fill="#5e5e5e"/><path d="M637.5 1091.44h-50.16" stroke="#5e5e5e" stroke-width="2" fill="none"/><path d="M638.5 1092.44h-1.03v-2h1.03z" stroke="#5e5e5e" stroke-width=".05" fill="#5e5e5e"/><path d="M572.07 1091.44l14.26-4.63v9.28z" stroke="#5e5e5e" stroke-width="2" fill="#5e5e5e"/><path d="M326.55 1740H440" stroke="#5e5e5e" stroke-width="2" fill="none"/><path d="M326.58 1741h-1.3l.54-2h.76z" stroke="#5e5e5e" stroke-width=".05" fill="#5e5e5e"/><path d="M455.26 1740l-14.26 4.63v-9.27z" stroke="#5e5e5e" stroke-width="2" fill="#5e5e5e"/><path d="M100 180h260v271.44H100z" stroke="#dfe3e8" stroke-width="2" fill="#fff"/><path d="M156 253.6c0 6.63-5.37 12-12 12s-12-5.37-12-12 5.37-12 12-12 12 5.37 12 12z" stroke="#000" stroke-opacity=".25" fill="#00c2a8"/><path d="M156 296.88c0 6.63-5.37 12-12 12s-12-5.37-12-12 5.37-12 12-12 12 5.37 12 12z" stroke="#000" stroke-opacity=".25" fill="#c3f7c8"/><path d="M156 328.88c0 6.63-5.37 12-12 12s-12-5.37-12-12 5.37-12 12-12 12 5.37 12 12z" stroke="#000" stroke-opacity=".25" fill="#fff7a1"/><path d="M156 360.88c0 6.63-5.37 12-12 12s-12-5.37-12-12 5.37-12 12-12 12 5.37 12 12z" stroke="#000" stroke-opacity=".25" fill="#cfe4ff"/><path d="M156 404.16c0 6.63-5.37 12-12 12s-12-5.37-12-12 5.37-12 12-12 12 5.37 12 12z" stroke="#000" stroke-opacity=".25" fill="#ff8f8f"/><g><use xlink:href="#N" transform="matrix(1,0,0,1,132,204) translate(0 14.6)"/></g><g><use xlink:href="#O" transform="matrix(1,0,0,1,168,316.88) translate(0 14.8)"/><use xlink:href="#P" transform="matrix(1,0,0,1,168,316.88) translate(50.477777777777774 14.8)"/></g><g><use xlink:href="#O" transform="matrix(1,0,0,1,168,348.88) translate(0 11.559999999999997)"/><use xlink:href="#Q" transform="matrix(1,0,0,1,168,348.88) translate(50.477777777777774 11.559999999999997)"/><use xlink:href="#R" transform="matrix(1,0,0,1,168,348.88) translate(96.36666666666666 11.559999999999997)"/><use xlink:href="#S" transform="matrix(1,0,0,1,168,348.88) translate(104.88333333333333 11.559999999999997)"/><use xlink:href="#T" transform="matrix(1,0,0,1,168,348.88) translate(0 30.04)"/></g><g><use xlink:href="#U" transform="matrix(1,0,0,1,168,392.15999999999997) translate(0 11.559999999999997)"/><use xlink:href="#V" transform="matrix(1,0,0,1,168,392.15999999999997) translate(45.888888888888886 11.559999999999997)"/><use xlink:href="#R" transform="matrix(1,0,0,1,168,392.15999999999997) translate(67.58888888888889 11.559999999999997)"/><use xlink:href="#W" transform="matrix(1,0,0,1,168,392.15999999999997) translate(76.10555555555555 11.559999999999997)"/><use xlink:href="#X" transform="matrix(1,0,0,1,168,392.15999999999997) translate(121.1 11.559999999999997)"/><use xlink:href="#Y" transform="matrix(1,0,0,1,168,392.15999999999997) translate(0 30.04)"/><use xlink:href="#Z" transform="matrix(1,0,0,1,168,392.15999999999997) translate(45.03333333333333 30.04)"/></g><g><use xlink:href="#aa" transform="matrix(1,0,0,1,168,241.6) translate(0 11.559999999999997)"/><use xlink:href="#V" transform="matrix(1,0,0,1,168,241.6) translate(35 11.559999999999997)"/><use xlink:href="#R" transform="matrix(1,0,0,1,168,241.6) translate(56.7 11.559999999999997)"/><use xlink:href="#ab" transform="matrix(1,0,0,1,168,241.6) translate(65.21666666666667 11.559999999999997)"/><use xlink:href="#ac" transform="matrix(1,0,0,1,168,241.6) translate(132.06666666666666 11.559999999999997)"/><use xlink:href="#ad" transform="matrix(1,0,0,1,168,241.6) translate(0 30.04)"/></g><g><use xlink:href="#aa" transform="matrix(1,0,0,1,168,284.88) translate(0 14.8)"/><use xlink:href="#ae" transform="matrix(1,0,0,1,168,284.88) translate(35 14.8)"/></g><defs><path fill="#333" d="M160-131c35 5 61 23 61 61C221 17 115-2 30 0v-248c76 3 177-17 177 60 0 33-19 50-47 57zm-97-11c50-1 110 9 110-42 0-47-63-36-110-37v79zm0 115c55-2 124 14 124-45 0-56-70-42-124-44v89" id="af"/><path fill="#333" d="M141-36C126-15 110 5 73 4 37 3 15-17 15-53c-1-64 63-63 125-63 3-35-9-54-41-54-24 1-41 7-42 31l-33-3c5-37 33-52 76-52 45 0 72 20 72 64v82c-1 20 7 32 28 27v20c-31 9-61-2-59-35zM48-53c0 20 12 33 32 33 41-3 63-29 60-74-43 2-92-5-92 41" id="ag"/><path fill="#333" d="M114-163C36-179 61-72 57 0H25l-1-190h30c1 12-1 29 2 39 6-27 23-49 58-41v29" id="ah"/><path fill="#333" d="M96-169c-40 0-48 33-48 73s9 75 48 75c24 0 41-14 43-38l32 2c-6 37-31 61-74 61-59 0-76-41-82-99-10-93 101-131 147-64 4 7 5 14 7 22l-32 3c-4-21-16-35-41-35" id="ai"/><path fill="#333" d="M100-194c62-1 85 37 85 99 1 63-27 99-86 99S16-35 15-95c0-66 28-99 85-99zM99-20c44 1 53-31 53-75 0-43-8-75-51-75s-53 32-53 75 10 74 51 75" id="aj"/><path fill="#333" d="M85-194c31 0 48 13 60 33l-1-100h32l1 261h-30c-2-10 0-23-3-31C134-8 116 4 85 4 32 4 16-35 15-94c0-66 23-100 70-100zm9 24c-40 0-46 34-46 75 0 40 6 74 45 74 42 0 51-32 51-76 0-42-9-74-50-73" id="ak"/><path fill="#333" d="M100-194c63 0 86 42 84 106H49c0 40 14 67 53 68 26 1 43-12 49-29l28 8c-11 28-37 45-77 45C44 4 14-33 15-96c1-61 26-98 85-98zm52 81c6-60-76-77-97-28-3 7-6 17-6 28h103" id="al"/><g id="a"><use transform="matrix(0.06172839506172839,0,0,0.06172839506172839,0,0)" xlink:href="#af"/><use transform="matrix(0.06172839506172839,0,0,0.06172839506172839,14.814814814814813,0)" xlink:href="#ag"/><use transform="matrix(0.06172839506172839,0,0,0.06172839506172839,27.160493827160494,0)" xlink:href="#ah"/><use transform="matrix(0.06172839506172839,0,0,0.06172839506172839,34.50617283950617,0)" xlink:href="#ai"/><use transform="matrix(0.06172839506172839,0,0,0.06172839506172839,45.61728395061728,0)" xlink:href="#aj"/><use transform="matrix(0.06172839506172839,0,0,0.06172839506172839,57.962962962962955,0)" xlink:href="#ak"/><use transform="matrix(0.06172839506172839,0,0,0.06172839506172839,70.30864197530863,0)" xlink:href="#al"/></g><path fill="#333" d="M30 0v-248h33v221h125V0H30" id="am"/><path fill="#333" d="M108 0H70L1-190h34L89-25l56-165h34" id="an"/><path fill="#333" d="M24 0v-261h32V0H24" id="ao"/><g id="b"><use transform="matrix(0.06172839506172839,0,0,0.06172839506172839,0,0)" xlink:href="#am"/><use transform="matrix(0.06172839506172839,0,0,0.06172839506172839,12.345679012345679,0)" xlink:href="#al"/><use transform="matrix(0.06172839506172839,0,0,0.06172839506172839,24.691358024691358,0)" xlink:href="#an"/><use transform="matrix(0.06172839506172839,0,0,0.06172839506172839,35.80246913580247,0)" xlink:href="#al"/><use transform="matrix(0.06172839506172839,0,0,0.06172839506172839,48.148148148148145,0)" xlink:href="#ao"/></g><path fill="#333" d="M212-179c-10-28-35-45-73-45-59 0-87 40-87 99 0 60 29 101 89 101 43 0 62-24 78-52l27 14C228-24 195 4 139 4 59 4 22-46 18-125c-6-104 99-153 187-111 19 9 31 26 39 46" id="ap"/><path fill="#333" d="M84 4C-5 8 30-112 23-190h32v120c0 31 7 50 39 49 72-2 45-101 50-169h31l1 190h-30c-1-10 1-25-2-33-11 22-28 36-60 37" id="aq"/><path fill="#333" d="M117-194c89-4 53 116 60 194h-32v-121c0-31-8-49-39-48C34-167 62-67 57 0H25l-1-190h30c1 10-1 24 2 32 11-22 29-35 61-36" id="ar"/><path fill="#333" d="M59-47c-2 24 18 29 38 22v24C64 9 27 4 27-40v-127H5v-23h24l9-43h21v43h35v23H59v120" id="as"/><g id="c"><use transform="matrix(0.06172839506172839,0,0,0.06172839506172839,0,0)" xlink:href="#ap"/><use transform="matrix(0.06172839506172839,0,0,0.06172839506172839,15.987654320987653,0)" xlink:href="#aj"/><use transform="matrix(0.06172839506172839,0,0,0.06172839506172839,28.333333333333332,0)" xlink:href="#aq"/><use transform="matrix(0.06172839506172839,0,0,0.06172839506172839,40.67901234567901,0)" xlink:href="#ar"/><use transform="matrix(0.06172839506172839,0,0,0.06172839506172839,53.02469135802469,0)" xlink:href="#as"/></g><path fill="#333" d="M127-220V0H93v-220H8v-28h204v28h-85" id="at"/><path fill="#333" d="M115-194c53 0 69 39 70 98 0 66-23 100-70 100C84 3 66-7 56-30L54 0H23l1-261h32v101c10-23 28-34 59-34zm-8 174c40 0 45-34 45-75 0-40-5-75-45-74-42 0-51 32-51 76 0 43 10 73 51 73" id="au"/><g id="d"><use transform="matrix(0.06172839506172839,0,0,0.06172839506172839,0,0)" xlink:href="#at"/><use transform="matrix(0.06172839506172839,0,0,0.06172839506172839,11.049382716049381,0)" xlink:href="#ag"/><use transform="matrix(0.06172839506172839,0,0,0.06172839506172839,23.39506172839506,0)" xlink:href="#au"/><use transform="matrix(0.06172839506172839,0,0,0.06172839506172839,35.74074074074074,0)" xlink:href="#ao"/><use transform="matrix(0.06172839506172839,0,0,0.06172839506172839,40.617283950617285,0)" xlink:href="#al"/></g><path fill="#333" d="M205 0l-28-72H64L36 0H1l101-248h38L239 0h-34zm-38-99l-47-123c-12 45-31 82-46 123h93" id="av"/><path fill="#333" d="M24-231v-30h32v30H24zM24 0v-190h32V0H24" id="aw"/><path fill="#333" d="M135-143c-3-34-86-38-87 0 15 53 115 12 119 90S17 21 10-45l28-5c4 36 97 45 98 0-10-56-113-15-118-90-4-57 82-63 122-42 12 7 21 19 24 35" id="ax"/><g id="e"><use transform="matrix(0.06172839506172839,0,0,0.06172839506172839,0,0)" xlink:href="#av"/><use transform="matrix(0.06172839506172839,0,0,0.06172839506172839,14.814814814814813,0)" xlink:href="#as"/><use transform="matrix(0.06172839506172839,0,0,0.06172839506172839,20.98765432098765,0)" xlink:href="#as"/><use transform="matrix(0.06172839506172839,0,0,0.06172839506172839,27.16049382716049,0)" xlink:href="#ah"/><use transform="matrix(0.06172839506172839,0,0,0.06172839506172839,34.50617283950617,0)" xlink:href="#aw"/><use transform="matrix(0.06172839506172839,0,0,0.06172839506172839,39.382716049382715,0)" xlink:href="#au"/><use transform="matrix(0.06172839506172839,0,0,0.06172839506172839,51.72839506172839,0)" xlink:href="#aq"/><use transform="matrix(0.06172839506172839,0,0,0.06172839506172839,64.07407407407408,0)" xlink:href="#as"/><use transform="matrix(0.06172839506172839,0,0,0.06172839506172839,70.24691358024691,0)" xlink:href="#al"/><use transform="matrix(0.06172839506172839,0,0,0.06172839506172839,82.5925925925926,0)" xlink:href="#ax"/></g><g id="f"><use transform="matrix(0.06172839506172839,0,0,0.06172839506172839,0,0)" xlink:href="#ap"/><use transform="matrix(0.06172839506172839,0,0,0.06172839506172839,15.987654320987653,0)" xlink:href="#aj"/><use transform="matrix(0.06172839506172839,0,0,0.06172839506172839,28.333333333333332,0)" xlink:href="#ar"/><use transform="matrix(0.06172839506172839,0,0,0.06172839506172839,40.67901234567901,0)" xlink:href="#ak"/><use transform="matrix(0.06172839506172839,0,0,0.06172839506172839,53.02469135802469,0)" xlink:href="#aw"/><use transform="matrix(0.06172839506172839,0,0,0.06172839506172839,57.901234567901234,0)" xlink:href="#as"/><use transform="matrix(0.06172839506172839,0,0,0.06172839506172839,64.07407407407408,0)" xlink:href="#aw"/><use transform="matrix(0.06172839506172839,0,0,0.06172839506172839,68.95061728395062,0)" xlink:href="#aj"/><use transform="matrix(0.06172839506172839,0,0,0.06172839506172839,81.2962962962963,0)" xlink:href="#ar"/></g><path fill="#333" d="M177-190C167-65 218 103 67 71c-23-6-38-20-44-43l32-5c15 47 100 32 89-28v-30C133-14 115 1 83 1 29 1 15-40 15-95c0-56 16-97 71-98 29-1 48 16 59 35 1-10 0-23 2-32h30zM94-22c36 0 50-32 50-73 0-42-14-75-50-75-39 0-46 34-46 75s6 73 46 73" id="ay"/><g id="g"><use transform="matrix(0.06172839506172839,0,0,0.06172839506172839,0,0)" xlink:href="#av"/><use transform="matrix(0.06172839506172839,0,0,0.06172839506172839,14.814814814814813,0)" xlink:href="#ay"/><use transform="matrix(0.06172839506172839,0,0,0.06172839506172839,27.160493827160494,0)" xlink:href="#ay"/><use transform="matrix(0.06172839506172839,0,0,0.06172839506172839,39.50617283950617,0)" xlink:href="#ah"/><use transform="matrix(0.06172839506172839,0,0,0.06172839506172839,46.85185185185185,0)" xlink:href="#al"/><use transform="matrix(0.06172839506172839,0,0,0.06172839506172839,59.197530864197525,0)" xlink:href="#ay"/><use transform="matrix(0.06172839506172839,0,0,0.06172839506172839,71.5432098765432,0)" xlink:href="#ag"/><use transform="matrix(0.06172839506172839,0,0,0.06172839506172839,83.88888888888889,0)" xlink:href="#as"/><use transform="matrix(0.06172839506172839,0,0,0.06172839506172839,90.06172839506172,0)" xlink:href="#al"/></g><g id="h"><use transform="matrix(0.06172839506172839,0,0,0.06172839506172839,0,0)" xlink:href="#ap"/><use transform="matrix(0.06172839506172839,0,0,0.06172839506172839,15.987654320987653,0)" xlink:href="#aj"/><use transform="matrix(0.06172839506172839,0,0,0.06172839506172839,28.333333333333332,0)" xlink:href="#aq"/><use transform="matrix(0.06172839506172839,0,0,0.06172839506172839,40.67901234567901,0)" xlink:href="#ar"/><use transform="matrix(0.06172839506172839,0,0,0.06172839506172839,53.02469135802469,0)" xlink:href="#as"/><use transform="matrix(0.06172839506172839,0,0,0.06172839506172839,59.19753086419753,0)" xlink:href="#ax"/></g><path fill="#333" d="M140-251c81 0 123 46 123 126C263-46 219 4 140 4 59 4 17-45 17-125s42-126 123-126zm0 227c63 0 89-41 89-101s-29-99-89-99c-61 0-89 39-89 99S79-25 140-24" id="az"/><g id="i"><use transform="matrix(0.06172839506172839,0,0,0.06172839506172839,0,0)" xlink:href="#az"/><use transform="matrix(0.06172839506172839,0,0,0.06172839506172839,17.28395061728395,0)" xlink:href="#ao"/><use transform="matrix(0.06172839506172839,0,0,0.06172839506172839,22.160493827160494,0)" xlink:href="#aw"/><use transform="matrix(0.06172839506172839,0,0,0.06172839506172839,27.037037037037038,0)" xlink:href="#ay"/><use transform="matrix(0.06172839506172839,0,0,0.06172839506172839,39.382716049382715,0)" xlink:href="#aj"/></g><path fill="#333" d="M233-177c-1 41-23 64-60 70L243 0h-38l-65-103H63V0H30v-248c88 3 205-21 203 71zM63-129c60-2 137 13 137-47 0-61-80-42-137-45v92" id="aA"/><g id="j"><use transform="matrix(0.06172839506172839,0,0,0.06172839506172839,0,0)" xlink:href="#aA"/><use transform="matrix(0.06172839506172839,0,0,0.06172839506172839,15.987654320987653,0)" xlink:href="#aq"/><use transform="matrix(0.06172839506172839,0,0,0.06172839506172839,28.333333333333332,0)" xlink:href="#ar"/></g><path fill="#333" d="M30-248c118-7 216 8 213 122C240-48 200 0 122 0H30v-248zM63-27c89 8 146-16 146-99s-60-101-146-95v194" id="aB"/><path fill="#333" d="M30 0v-248h187v28H63v79h144v27H63v87h162V0H30" id="aC"/><path fill="#333" d="M185-189c-5-48-123-54-124 2 14 75 158 14 163 119 3 78-121 87-175 55-17-10-28-26-33-46l33-7c5 56 141 63 141-1 0-78-155-14-162-118-5-82 145-84 179-34 5 7 8 16 11 25" id="aD"/><path fill="#333" d="M145-31C134-9 116 4 85 4 32 4 16-35 15-94c0-59 17-99 70-100 32-1 48 14 60 33 0-11-1-24 2-32h30l-1 268h-32zM93-21c41 0 51-33 51-76s-8-73-50-73c-40 0-46 35-46 75s5 74 45 74" id="aE"/><g id="k"><use transform="matrix(0.06172839506172839,0,0,0.06172839506172839,0,0)" xlink:href="#aB"/><use transform="matrix(0.06172839506172839,0,0,0.06172839506172839,15.987654320987653,0)" xlink:href="#aC"/><use transform="matrix(0.06172839506172839,0,0,0.06172839506172839,30.80246913580247,0)" xlink:href="#aD"/><use transform="matrix(0.06172839506172839,0,0,0.06172839506172839,45.61728395061728,0)" xlink:href="#al"/><use transform="matrix(0.06172839506172839,0,0,0.06172839506172839,57.962962962962955,0)" xlink:href="#aE"/></g><g id="l"><use transform="matrix(0.06172839506172839,0,0,0.06172839506172839,0,0)" xlink:href="#aB"/><use transform="matrix(0.06172839506172839,0,0,0.06172839506172839,15.987654320987653,0)" xlink:href="#aC"/><use transform="matrix(0.06172839506172839,0,0,0.06172839506172839,30.80246913580247,0)" xlink:href="#aD"/><use transform="matrix(0.06172839506172839,0,0,0.06172839506172839,45.61728395061728,0)" xlink:href="#al"/><use transform="matrix(0.06172839506172839,0,0,0.06172839506172839,57.962962962962955,0)" xlink:href="#aE"/></g><g id="m"><use transform="matrix(0.06172839506172839,0,0,0.06172839506172839,0,0)" xlink:href="#aA"/><use transform="matrix(0.06172839506172839,0,0,0.06172839506172839,15.987654320987653,0)" xlink:href="#al"/><use transform="matrix(0.06172839506172839,0,0,0.06172839506172839,28.333333333333332,0)" xlink:href="#ax"/><use transform="matrix(0.06172839506172839,0,0,0.06172839506172839,39.44444444444444,0)" xlink:href="#aq"/><use transform="matrix(0.06172839506172839,0,0,0.06172839506172839,51.79012345679012,0)" xlink:href="#ao"/><use transform="matrix(0.06172839506172839,0,0,0.06172839506172839,56.666666666666664,0)" xlink:href="#as"/><use transform="matrix(0.06172839506172839,0,0,0.06172839506172839,62.839506172839506,0)" xlink:href="#ax"/></g><path fill="#333" d="M190 0L58-211 59 0H30v-248h39L202-35l-2-213h31V0h-41" id="aF"/><path fill="#333" d="M210-169c-67 3-38 105-44 169h-31v-121c0-29-5-50-35-48C34-165 62-65 56 0H25l-1-190h30c1 10-1 24 2 32 10-44 99-50 107 0 11-21 27-35 58-36 85-2 47 119 55 194h-31v-121c0-29-5-49-35-48" id="aG"/><path fill="#333" d="M9 0v-24l116-142H16v-24h144v24L44-24h123V0H9" id="aH"/><g id="n"><use transform="matrix(0.06172839506172839,0,0,0.06172839506172839,0,0)" xlink:href="#aF"/><use transform="matrix(0.06172839506172839,0,0,0.06172839506172839,15.987654320987653,0)" xlink:href="#aj"/><use transform="matrix(0.06172839506172839,0,0,0.06172839506172839,28.333333333333332,0)" xlink:href="#ah"/><use transform="matrix(0.06172839506172839,0,0,0.06172839506172839,35.67901234567901,0)" xlink:href="#aG"/><use transform="matrix(0.06172839506172839,0,0,0.06172839506172839,54.1358024691358,0)" xlink:href="#ag"/><use transform="matrix(0.06172839506172839,0,0,0.06172839506172839,66.48148148148148,0)" xlink:href="#ao"/><use transform="matrix(0.06172839506172839,0,0,0.06172839506172839,71.35802469135803,0)" xlink:href="#aw"/><use transform="matrix(0.06172839506172839,0,0,0.06172839506172839,76.23456790123457,0)" xlink:href="#aH"/><use transform="matrix(0.06172839506172839,0,0,0.06172839506172839,87.34567901234568,0)" xlink:href="#al"/></g><g id="o"><use transform="matrix(0.06172839506172839,0,0,0.06172839506172839,0,0)" xlink:href="#aB"/><use transform="matrix(0.06172839506172839,0,0,0.06172839506172839,15.987654320987653,0)" xlink:href="#aC"/><use transform="matrix(0.06172839506172839,0,0,0.06172839506172839,30.80246913580247,0)" xlink:href="#aD"/><use transform="matrix(0.06172839506172839,0,0,0.06172839506172839,45.61728395061728,0)" xlink:href="#al"/><use transform="matrix(0.06172839506172839,0,0,0.06172839506172839,57.962962962962955,0)" xlink:href="#aE"/></g><g id="p"><use transform="matrix(0.06172839506172839,0,0,0.06172839506172839,0,0)" xlink:href="#aF"/><use transform="matrix(0.06172839506172839,0,0,0.06172839506172839,15.987654320987653,0)" xlink:href="#aj"/><use transform="matrix(0.06172839506172839,0,0,0.06172839506172839,28.333333333333332,0)" xlink:href="#ah"/><use transform="matrix(0.06172839506172839,0,0,0.06172839506172839,35.67901234567901,0)" xlink:href="#aG"/><use transform="matrix(0.06172839506172839,0,0,0.06172839506172839,54.1358024691358,0)" xlink:href="#ag"/><use transform="matrix(0.06172839506172839,0,0,0.06172839506172839,66.48148148148148,0)" xlink:href="#ao"/><use transform="matrix(0.06172839506172839,0,0,0.06172839506172839,71.35802469135803,0)" xlink:href="#aw"/><use transform="matrix(0.06172839506172839,0,0,0.06172839506172839,76.23456790123457,0)" xlink:href="#aH"/><use transform="matrix(0.06172839506172839,0,0,0.06172839506172839,87.34567901234568,0)" xlink:href="#al"/><use transform="matrix(0.06172839506172839,0,0,0.06172839506172839,99.69135802469137,0)" xlink:href="#ak"/></g><path fill="#333" d="M232-93c-1 65-40 97-104 97C67 4 28-28 28-90v-158h33c8 89-33 224 67 224 102 0 64-133 71-224h33v155" id="aI"/><path fill="#333" d="M115-194c55 1 70 41 70 98S169 2 115 4C84 4 66-9 55-30l1 105H24l-1-265h31l2 30c10-21 28-34 59-34zm-8 174c40 0 45-34 45-75s-6-73-45-74c-42 0-51 32-51 76 0 43 10 73 51 73" id="aJ"/><g id="q"><use transform="matrix(0.06172839506172839,0,0,0.06172839506172839,0,0)" xlink:href="#aI"/><use transform="matrix(0.06172839506172839,0,0,0.06172839506172839,15.987654320987653,0)" xlink:href="#aJ"/><use transform="matrix(0.06172839506172839,0,0,0.06172839506172839,28.333333333333332,0)" xlink:href="#ak"/><use transform="matrix(0.06172839506172839,0,0,0.06172839506172839,40.67901234567901,0)" xlink:href="#ag"/><use transform="matrix(0.06172839506172839,0,0,0.06172839506172839,53.02469135802469,0)" xlink:href="#as"/><use transform="matrix(0.06172839506172839,0,0,0.06172839506172839,59.19753086419753,0)" xlink:href="#al"/></g><g id="r"><use transform="matrix(0.06172839506172839,0,0,0.06172839506172839,0,0)" xlink:href="#ap"/><use transform="matrix(0.06172839506172839,0,0,0.06172839506172839,15.987654320987653,0)" xlink:href="#al"/><use transform="matrix(0.06172839506172839,0,0,0.06172839506172839,28.333333333333332,0)" xlink:href="#ao"/><use transform="matrix(0.06172839506172839,0,0,0.06172839506172839,33.20987654320987,0)" xlink:href="#ao"/></g><g id="s"><use transform="matrix(0.06172839506172839,0,0,0.06172839506172839,0,0)" xlink:href="#aB"/><use transform="matrix(0.06172839506172839,0,0,0.06172839506172839,15.987654320987653,0)" xlink:href="#aw"/><use transform="matrix(0.06172839506172839,0,0,0.06172839506172839,20.864197530864196,0)" xlink:href="#ax"/><use transform="matrix(0.06172839506172839,0,0,0.06172839506172839,31.975308641975307,0)" xlink:href="#aJ"/><use transform="matrix(0.06172839506172839,0,0,0.06172839506172839,44.32098765432099,0)" xlink:href="#al"/><use transform="matrix(0.06172839506172839,0,0,0.06172839506172839,56.666666666666664,0)" xlink:href="#ah"/><use transform="matrix(0.06172839506172839,0,0,0.06172839506172839,64.01234567901234,0)" xlink:href="#ax"/><use transform="matrix(0.06172839506172839,0,0,0.06172839506172839,75.12345679012346,0)" xlink:href="#aw"/><use transform="matrix(0.06172839506172839,0,0,0.06172839506172839,80,0)" xlink:href="#aj"/><use transform="matrix(0.06172839506172839,0,0,0.06172839506172839,92.34567901234568,0)" xlink:href="#ar"/><use transform="matrix(0.06172839506172839,0,0,0.06172839506172839,104.69135802469137,0)" xlink:href="#ax"/></g><g id="t"><use transform="matrix(0.06172839506172839,0,0,0.06172839506172839,0,0)" xlink:href="#ap"/><use transform="matrix(0.06172839506172839,0,0,0.06172839506172839,15.987654320987653,0)" xlink:href="#al"/><use transform="matrix(0.06172839506172839,0,0,0.06172839506172839,28.333333333333332,0)" xlink:href="#ao"/><use transform="matrix(0.06172839506172839,0,0,0.06172839506172839,33.20987654320987,0)" xlink:href="#ao"/></g><path fill="#333" d="M101-234c-31-9-42 10-38 44h38v23H63V0H32v-167H5v-23h27c-7-52 17-82 69-68v24" id="aK"/><g id="u"><use transform="matrix(0.06172839506172839,0,0,0.06172839506172839,0,0)" xlink:href="#aD"/><use transform="matrix(0.06172839506172839,0,0,0.06172839506172839,14.814814814814813,0)" xlink:href="#aJ"/><use transform="matrix(0.06172839506172839,0,0,0.06172839506172839,27.160493827160494,0)" xlink:href="#al"/><use transform="matrix(0.06172839506172839,0,0,0.06172839506172839,39.50617283950617,0)" xlink:href="#ai"/><use transform="matrix(0.06172839506172839,0,0,0.06172839506172839,50.61728395061728,0)" xlink:href="#aw"/><use transform="matrix(0.06172839506172839,0,0,0.06172839506172839,55.49382716049382,0)" xlink:href="#aK"/><use transform="matrix(0.06172839506172839,0,0,0.06172839506172839,61.666666666666664,0)" xlink:href="#aw"/><use transform="matrix(0.06172839506172839,0,0,0.06172839506172839,66.5432098765432,0)" xlink:href="#ai"/></g><g id="v"><use transform="matrix(0.06172839506172839,0,0,0.06172839506172839,0,0)" xlink:href="#aD"/><use transform="matrix(0.06172839506172839,0,0,0.06172839506172839,14.814814814814813,0)" xlink:href="#as"/><use transform="matrix(0.06172839506172839,0,0,0.06172839506172839,20.98765432098765,0)" xlink:href="#ag"/><use transform="matrix(0.06172839506172839,0,0,0.06172839506172839,33.33333333333333,0)" xlink:href="#ar"/><use transform="matrix(0.06172839506172839,0,0,0.06172839506172839,45.679012345679006,0)" xlink:href="#ak"/><use transform="matrix(0.06172839506172839,0,0,0.06172839506172839,58.02469135802468,0)" xlink:href="#ag"/><use transform="matrix(0.06172839506172839,0,0,0.06172839506172839,70.37037037037037,0)" xlink:href="#ah"/><use transform="matrix(0.06172839506172839,0,0,0.06172839506172839,77.71604938271605,0)" xlink:href="#ak"/></g><g id="w"><use transform="matrix(0.06172839506172839,0,0,0.06172839506172839,0,0)" xlink:href="#av"/><use transform="matrix(0.06172839506172839,0,0,0.06172839506172839,14.814814814814813,0)" xlink:href="#ao"/><use transform="matrix(0.06172839506172839,0,0,0.06172839506172839,19.691358024691354,0)" xlink:href="#ao"/><use transform="matrix(0.06172839506172839,0,0,0.06172839506172839,24.5679012345679,0)" xlink:href="#al"/><use transform="matrix(0.06172839506172839,0,0,0.06172839506172839,36.913580246913575,0)" xlink:href="#ao"/><use transform="matrix(0.06172839506172839,0,0,0.06172839506172839,41.79012345679012,0)" xlink:href="#aw"/><use transform="matrix(0.06172839506172839,0,0,0.06172839506172839,46.666666666666664,0)" xlink:href="#ai"/></g><path fill="#333" d="M143 0L79-87 56-68V0H24v-261h32v163l83-92h37l-77 82L181 0h-38" id="aL"/><path fill="#333" d="M206 0h-36l-40-164L89 0H53L-1-190h32L70-26l43-164h34l41 164 42-164h31" id="aM"/><g id="x"><use transform="matrix(0.06172839506172839,0,0,0.06172839506172839,0,0)" xlink:href="#aD"/><use transform="matrix(0.06172839506172839,0,0,0.06172839506172839,14.814814814814813,0)" xlink:href="#aL"/><use transform="matrix(0.06172839506172839,0,0,0.06172839506172839,25.925925925925924,0)" xlink:href="#al"/><use transform="matrix(0.06172839506172839,0,0,0.06172839506172839,38.2716049382716,0)" xlink:href="#aM"/></g><g id="y"><use transform="matrix(0.06172839506172839,0,0,0.06172839506172839,0,0)" xlink:href="#aK"/><use transform="matrix(0.06172839506172839,0,0,0.06172839506172839,6.172839506172839,0)" xlink:href="#ah"/><use transform="matrix(0.06172839506172839,0,0,0.06172839506172839,13.518518518518519,0)" xlink:href="#aj"/><use transform="matrix(0.06172839506172839,0,0,0.06172839506172839,25.864197530864196,0)" xlink:href="#aG"/></g><g id="z"><use transform="matrix(0.06172839506172839,0,0,0.06172839506172839,0,0)" xlink:href="#as"/><use transform="matrix(0.06172839506172839,0,0,0.06172839506172839,6.172839506172839,0)" xlink:href="#at"/><use transform="matrix(0.06172839506172839,0,0,0.06172839506172839,17.22222222222222,0)" xlink:href="#al"/><use transform="matrix(0.06172839506172839,0,0,0.06172839506172839,29.5679012345679,0)" xlink:href="#ax"/><use transform="matrix(0.06172839506172839,0,0,0.06172839506172839,40.67901234567901,0)" xlink:href="#as"/></g><g id="A"><use transform="matrix(0.06172839506172839,0,0,0.06172839506172839,0,0)" xlink:href="#av"/><use transform="matrix(0.06172839506172839,0,0,0.06172839506172839,14.814814814814813,0)" xlink:href="#ao"/><use transform="matrix(0.06172839506172839,0,0,0.06172839506172839,19.691358024691354,0)" xlink:href="#ao"/><use transform="matrix(0.06172839506172839,0,0,0.06172839506172839,24.5679012345679,0)" xlink:href="#al"/><use transform="matrix(0.06172839506172839,0,0,0.06172839506172839,36.913580246913575,0)" xlink:href="#ao"/><use transform="matrix(0.06172839506172839,0,0,0.06172839506172839,41.79012345679012,0)" xlink:href="#aw"/><use transform="matrix(0.06172839506172839,0,0,0.06172839506172839,46.666666666666664,0)" xlink:href="#ai"/></g><g id="B"><use transform="matrix(0.06172839506172839,0,0,0.06172839506172839,0,0)" xlink:href="#aD"/><use transform="matrix(0.06172839506172839,0,0,0.06172839506172839,14.814814814814813,0)" xlink:href="#aL"/><use transform="matrix(0.06172839506172839,0,0,0.06172839506172839,25.925925925925924,0)" xlink:href="#al"/><use transform="matrix(0.06172839506172839,0,0,0.06172839506172839,38.2716049382716,0)" xlink:href="#aM"/></g><g id="C"><use transform="matrix(0.06172839506172839,0,0,0.06172839506172839,0,0)" xlink:href="#aC"/><use transform="matrix(0.06172839506172839,0,0,0.06172839506172839,14.814814814814813,0)" xlink:href="#ar"/><use transform="matrix(0.06172839506172839,0,0,0.06172839506172839,27.160493827160494,0)" xlink:href="#ai"/><use transform="matrix(0.06172839506172839,0,0,0.06172839506172839,38.27160493827161,0)" xlink:href="#aj"/><use transform="matrix(0.06172839506172839,0,0,0.06172839506172839,50.617283950617285,0)" xlink:href="#ak"/><use transform="matrix(0.06172839506172839,0,0,0.06172839506172839,62.96296296296296,0)" xlink:href="#al"/></g><path fill="#333" d="M33 0v-38h34V0H33" id="aN"/><g id="D"><use transform="matrix(0.06172839506172839,0,0,0.06172839506172839,0,0)" xlink:href="#aN"/><use transform="matrix(0.06172839506172839,0,0,0.06172839506172839,6.172839506172839,0)" xlink:href="#au"/><use transform="matrix(0.06172839506172839,0,0,0.06172839506172839,18.51851851851852,0)" xlink:href="#al"/><use transform="matrix(0.06172839506172839,0,0,0.06172839506172839,30.864197530864196,0)" xlink:href="#ak"/></g><g id="E"><use transform="matrix(0.06172839506172839,0,0,0.06172839506172839,0,0)" xlink:href="#aK"/><use transform="matrix(0.06172839506172839,0,0,0.06172839506172839,6.172839506172839,0)" xlink:href="#aj"/><use transform="matrix(0.06172839506172839,0,0,0.06172839506172839,18.51851851851852,0)" xlink:href="#ah"/><use transform="matrix(0.06172839506172839,0,0,0.06172839506172839,25.864197530864196,0)" xlink:href="#aG"/><use transform="matrix(0.06172839506172839,0,0,0.06172839506172839,44.32098765432099,0)" xlink:href="#ag"/><use transform="matrix(0.06172839506172839,0,0,0.06172839506172839,56.666666666666664,0)" xlink:href="#as"/></g><path fill="#333" d="M115-3C79 11 28 4 28-45v-112H4v-33h27l15-45h31v45h36v33H77v99c-1 23 16 31 38 25v30" id="aO"/><path fill="#333" d="M136-208V0H84v-208H4v-40h212v40h-80" id="aP"/><path fill="#333" d="M185-48c-13 30-37 53-82 52C43 2 14-33 14-96s30-98 90-98c62 0 83 45 84 108H66c0 31 8 55 39 56 18 0 30-7 34-22zm-45-69c5-46-57-63-70-21-2 6-4 13-4 21h74" id="aQ"/><path fill="#333" d="M137-138c1-29-70-34-71-4 15 46 118 7 119 86 1 83-164 76-172 9l43-7c4 19 20 25 44 25 33 8 57-30 24-41C81-84 22-81 20-136c-2-80 154-74 161-7" id="aR"/><path fill="#333" d="M15-148v-39h180v39H15zm0 97v-39h180v39H15" id="aS"/><g id="F"><use transform="matrix(0.04938271604938272,0,0,0.04938271604938272,0,0)" xlink:href="#aO"/><use transform="matrix(0.04938271604938272,0,0,0.04938271604938272,5.8765432098765435,0)" xlink:href="#aP"/><use transform="matrix(0.04938271604938272,0,0,0.04938271604938272,15.358024691358025,0)" xlink:href="#aQ"/><use transform="matrix(0.04938271604938272,0,0,0.04938271604938272,25.23456790123457,0)" xlink:href="#aR"/><use transform="matrix(0.04938271604938272,0,0,0.04938271604938272,35.111111111111114,0)" xlink:href="#aO"/><use transform="matrix(0.04938271604938272,0,0,0.04938271604938272,40.98765432098766,0)" xlink:href="#aS"/><use transform="matrix(0.04938271604938272,0,0,0.04938271604938272,51.35802469135803,0)" xlink:href="#aP"/></g><path fill="#333" d="M24-248c120-7 223 5 221 122C244-46 201 0 124 0H24v-248zM76-40c74 7 117-18 117-86 0-67-45-88-117-82v168" id="aT"/><path fill="#333" d="M24 0v-248h195v40H76v63h132v40H76v65h150V0H24" id="aU"/><path fill="#333" d="M199 0l-22-63H83L61 0H9l90-248h61L250 0h-51zm-33-102l-36-108c-10 38-24 72-36 108h72" id="aV"/><g id="G"><use transform="matrix(0.04938271604938272,0,0,0.04938271604938272,0,0)" xlink:href="#aT"/><use transform="matrix(0.04938271604938272,0,0,0.04938271604938272,12.790123456790125,0)" xlink:href="#aU"/><use transform="matrix(0.04938271604938272,0,0,0.04938271604938272,24.641975308641978,0)" xlink:href="#aV"/><use transform="matrix(0.04938271604938272,0,0,0.04938271604938272,37.4320987654321,0)" xlink:href="#aR"/><use transform="matrix(0.04938271604938272,0,0,0.04938271604938272,47.308641975308646,0)" xlink:href="#aQ"/><use transform="matrix(0.04938271604938272,0,0,0.04938271604938272,57.18518518518519,0)" xlink:href="#aS"/><use transform="matrix(0.04938271604938272,0,0,0.04938271604938272,67.55555555555556,0)" xlink:href="#aP"/></g><g id="H"><use transform="matrix(0.06172839506172839,0,0,0.06172839506172839,0,0)" xlink:href="#as"/><use transform="matrix(0.06172839506172839,0,0,0.06172839506172839,6.172839506172839,0)" xlink:href="#at"/><use transform="matrix(0.06172839506172839,0,0,0.06172839506172839,17.22222222222222,0)" xlink:href="#al"/><use transform="matrix(0.06172839506172839,0,0,0.06172839506172839,29.5679012345679,0)" xlink:href="#ax"/><use transform="matrix(0.06172839506172839,0,0,0.06172839506172839,40.67901234567901,0)" xlink:href="#as"/></g><path fill="#333" d="M137 0h-34L2-248h35l83 218 83-218h36" id="aW"/><g id="I"><use transform="matrix(0.06172839506172839,0,0,0.06172839506172839,0,0)" xlink:href="#al"/><use transform="matrix(0.06172839506172839,0,0,0.06172839506172839,12.345679012345679,0)" xlink:href="#aG"/><use transform="matrix(0.06172839506172839,0,0,0.06172839506172839,30.80246913580247,0)" xlink:href="#aW"/><use transform="matrix(0.06172839506172839,0,0,0.06172839506172839,43.95061728395061,0)" xlink:href="#av"/><use transform="matrix(0.06172839506172839,0,0,0.06172839506172839,58.76543209876543,0)" xlink:href="#aA"/></g><g id="J"><use transform="matrix(0.06172839506172839,0,0,0.06172839506172839,0,0)" xlink:href="#ah"/><use transform="matrix(0.06172839506172839,0,0,0.06172839506172839,7.345679012345679,0)" xlink:href="#al"/><use transform="matrix(0.06172839506172839,0,0,0.06172839506172839,19.691358024691358,0)" xlink:href="#ax"/><use transform="matrix(0.06172839506172839,0,0,0.06172839506172839,30.80246913580247,0)" xlink:href="#aq"/><use transform="matrix(0.06172839506172839,0,0,0.06172839506172839,43.148148148148145,0)" xlink:href="#ao"/><use transform="matrix(0.06172839506172839,0,0,0.06172839506172839,48.02469135802469,0)" xlink:href="#as"/><use transform="matrix(0.06172839506172839,0,0,0.06172839506172839,54.19753086419753,0)" xlink:href="#ax"/></g><g id="K"><use transform="matrix(0.06172839506172839,0,0,0.06172839506172839,0,0)" xlink:href="#aB"/><use transform="matrix(0.06172839506172839,0,0,0.06172839506172839,15.987654320987653,0)" xlink:href="#aC"/><use transform="matrix(0.06172839506172839,0,0,0.06172839506172839,30.80246913580247,0)" xlink:href="#aD"/><use transform="matrix(0.06172839506172839,0,0,0.06172839506172839,45.61728395061728,0)" xlink:href="#al"/><use transform="matrix(0.06172839506172839,0,0,0.06172839506172839,57.962962962962955,0)" xlink:href="#aE"/></g><g id="L"><use transform="matrix(0.06172839506172839,0,0,0.06172839506172839,0,0)" xlink:href="#aD"/><use transform="matrix(0.06172839506172839,0,0,0.06172839506172839,14.814814814814813,0)" xlink:href="#aL"/><use transform="matrix(0.06172839506172839,0,0,0.06172839506172839,25.925925925925924,0)" xlink:href="#al"/><use transform="matrix(0.06172839506172839,0,0,0.06172839506172839,38.2716049382716,0)" xlink:href="#aM"/></g><g id="M"><use transform="matrix(0.06172839506172839,0,0,0.06172839506172839,0,0)" xlink:href="#al"/><use transform="matrix(0.06172839506172839,0,0,0.06172839506172839,12.345679012345679,0)" xlink:href="#aG"/><use transform="matrix(0.06172839506172839,0,0,0.06172839506172839,30.80246913580247,0)" xlink:href="#aW"/><use transform="matrix(0.06172839506172839,0,0,0.06172839506172839,43.95061728395061,0)" xlink:href="#av"/><use transform="matrix(0.06172839506172839,0,0,0.06172839506172839,58.76543209876543,0)" xlink:href="#aA"/><use transform="matrix(0.06172839506172839,0,0,0.06172839506172839,74.75308641975309,0)" xlink:href="#ax"/></g><path d="M195 0l-88-114-31 24V0H24v-248h52v113l112-113h60L142-143 257 0h-62" id="aX"/><path d="M185-48c-13 30-37 53-82 52C43 2 14-33 14-96s30-98 90-98c62 0 83 45 84 108H66c0 31 8 55 39 56 18 0 30-7 34-22zm-45-69c5-46-57-63-70-21-2 6-4 13-4 21h74" id="aY"/><path d="M123 10C108 53 80 86 19 72V37c35 8 53-11 59-39L3-190h52l48 148c12-52 28-100 44-148h51" id="aZ"/><g id="N"><use transform="matrix(0.05,0,0,0.05,0,0)" xlink:href="#aX"/><use transform="matrix(0.05,0,0,0.05,12.950000000000001,0)" xlink:href="#aY"/><use transform="matrix(0.05,0,0,0.05,22.950000000000003,0)" xlink:href="#aZ"/></g><path d="M33 0v-248h34V0H33" id="ba"/><path d="M117-194c89-4 53 116 60 194h-32v-121c0-31-8-49-39-48C34-167 62-67 57 0H25l-1-190h30c1 10-1 24 2 32 11-22 29-35 61-36" id="bb"/><path d="M59-47c-2 24 18 29 38 22v24C64 9 27 4 27-40v-127H5v-23h24l9-43h21v43h35v23H59v120" id="bc"/><path d="M100-194c63 0 86 42 84 106H49c0 40 14 67 53 68 26 1 43-12 49-29l28 8c-11 28-37 45-77 45C44 4 14-33 15-96c1-61 26-98 85-98zm52 81c6-60-76-77-97-28-3 7-6 17-6 28h103" id="bd"/><path d="M114-163C36-179 61-72 57 0H25l-1-190h30c1 12-1 29 2 39 6-27 23-49 58-41v29" id="be"/><path d="M141-36C126-15 110 5 73 4 37 3 15-17 15-53c-1-64 63-63 125-63 3-35-9-54-41-54-24 1-41 7-42 31l-33-3c5-37 33-52 76-52 45 0 72 20 72 64v82c-1 20 7 32 28 27v20c-31 9-61-2-59-35zM48-53c0 20 12 33 32 33 41-3 63-29 60-74-43 2-92-5-92 41" id="bf"/><path d="M24 0v-261h32V0H24" id="bg"/><g id="O"><use transform="matrix(0.03888888888888889,0,0,0.03888888888888889,0,0)" xlink:href="#ba"/><use transform="matrix(0.03888888888888889,0,0,0.03888888888888889,3.888888888888889,0)" xlink:href="#bb"/><use transform="matrix(0.03888888888888889,0,0,0.03888888888888889,11.666666666666666,0)" xlink:href="#bc"/><use transform="matrix(0.03888888888888889,0,0,0.03888888888888889,15.555555555555555,0)" xlink:href="#bd"/><use transform="matrix(0.03888888888888889,0,0,0.03888888888888889,23.333333333333332,0)" xlink:href="#be"/><use transform="matrix(0.03888888888888889,0,0,0.03888888888888889,27.96111111111111,0)" xlink:href="#bb"/><use transform="matrix(0.03888888888888889,0,0,0.03888888888888889,35.73888888888889,0)" xlink:href="#bf"/><use transform="matrix(0.03888888888888889,0,0,0.03888888888888889,43.516666666666666,0)" xlink:href="#bg"/></g><path d="M63-220v92h138v28H63V0H30v-248h175v28H63" id="bh"/><path d="M84 4C-5 8 30-112 23-190h32v120c0 31 7 50 39 49 72-2 45-101 50-169h31l1 190h-30c-1-10 1-25-2-33-11 22-28 36-60 37" id="bi"/><path d="M96-169c-40 0-48 33-48 73s9 75 48 75c24 0 41-14 43-38l32 2c-6 37-31 61-74 61-59 0-76-41-82-99-10-93 101-131 147-64 4 7 5 14 7 22l-32 3c-4-21-16-35-41-35" id="bj"/><path d="M24-231v-30h32v30H24zM24 0v-190h32V0H24" id="bk"/><path d="M100-194c62-1 85 37 85 99 1 63-27 99-86 99S16-35 15-95c0-66 28-99 85-99zM99-20c44 1 53-31 53-75 0-43-8-75-51-75s-53 32-53 75 10 74 51 75" id="bl"/><g id="P"><use transform="matrix(0.03888888888888889,0,0,0.03888888888888889,0,0)" xlink:href="#bh"/><use transform="matrix(0.03888888888888889,0,0,0.03888888888888889,8.516666666666667,0)" xlink:href="#bi"/><use transform="matrix(0.03888888888888889,0,0,0.03888888888888889,16.294444444444444,0)" xlink:href="#bb"/><use transform="matrix(0.03888888888888889,0,0,0.03888888888888889,24.072222222222223,0)" xlink:href="#bj"/><use transform="matrix(0.03888888888888889,0,0,0.03888888888888889,31.072222222222223,0)" xlink:href="#bc"/><use transform="matrix(0.03888888888888889,0,0,0.03888888888888889,34.96111111111111,0)" xlink:href="#bk"/><use transform="matrix(0.03888888888888889,0,0,0.03888888888888889,38.03333333333333,0)" xlink:href="#bl"/><use transform="matrix(0.03888888888888889,0,0,0.03888888888888889,45.81111111111111,0)" xlink:href="#bb"/></g><path d="M140-251c81 0 123 46 123 126C263-46 219 4 140 4 59 4 17-45 17-125s42-126 123-126zm0 227c63 0 89-41 89-101s-29-99-89-99c-61 0-89 39-89 99S79-25 140-24" id="bm"/><path d="M115-194c55 1 70 41 70 98S169 2 115 4C84 4 66-9 55-30l1 105H24l-1-265h31l2 30c10-21 28-34 59-34zm-8 174c40 0 45-34 45-75s-6-73-45-74c-42 0-51 32-51 76 0 43 10 73 51 73" id="bn"/><g id="Q"><use transform="matrix(0.03888888888888889,0,0,0.03888888888888889,0,0)" xlink:href="#bm"/><use transform="matrix(0.03888888888888889,0,0,0.03888888888888889,10.88888888888889,0)" xlink:href="#bi"/><use transform="matrix(0.03888888888888889,0,0,0.03888888888888889,18.666666666666668,0)" xlink:href="#bc"/><use transform="matrix(0.03888888888888889,0,0,0.03888888888888889,22.555555555555557,0)" xlink:href="#bn"/><use transform="matrix(0.03888888888888889,0,0,0.03888888888888889,30.333333333333332,0)" xlink:href="#bi"/><use transform="matrix(0.03888888888888889,0,0,0.03888888888888889,38.111111111111114,0)" xlink:href="#bc"/></g><path d="M16-82v-28h88v28H16" id="bo"/><use transform="matrix(0.03888888888888889,0,0,0.03888888888888889,0,0)" xlink:href="#bo" id="R"/><g id="S"><use transform="matrix(0.03888888888888889,0,0,0.03888888888888889,0,0)" xlink:href="#bb"/><use transform="matrix(0.03888888888888889,0,0,0.03888888888888889,7.777777777777778,0)" xlink:href="#bl"/><use transform="matrix(0.03888888888888889,0,0,0.03888888888888889,15.555555555555555,0)" xlink:href="#bc"/></g><path d="M206 0h-36l-40-164L89 0H53L-1-190h32L70-26l43-164h34l41 164 42-164h31" id="bp"/><g id="T"><use transform="matrix(0.03888888888888889,0,0,0.03888888888888889,0,0)" xlink:href="#bp"/><use transform="matrix(0.03888888888888889,0,0,0.03888888888888889,10.072222222222223,0)" xlink:href="#be"/><use transform="matrix(0.03888888888888889,0,0,0.03888888888888889,14.700000000000001,0)" xlink:href="#bk"/><use transform="matrix(0.03888888888888889,0,0,0.03888888888888889,17.772222222222222,0)" xlink:href="#bc"/><use transform="matrix(0.03888888888888889,0,0,0.03888888888888889,21.66111111111111,0)" xlink:href="#bc"/><use transform="matrix(0.03888888888888889,0,0,0.03888888888888889,25.55,0)" xlink:href="#bd"/><use transform="matrix(0.03888888888888889,0,0,0.03888888888888889,33.327777777777776,0)" xlink:href="#bb"/></g><g id="U"><use transform="matrix(0.03888888888888889,0,0,0.03888888888888889,0,0)" xlink:href="#bm"/><use transform="matrix(0.03888888888888889,0,0,0.03888888888888889,10.88888888888889,0)" xlink:href="#bi"/><use transform="matrix(0.03888888888888889,0,0,0.03888888888888889,18.666666666666668,0)" xlink:href="#bc"/><use transform="matrix(0.03888888888888889,0,0,0.03888888888888889,22.555555555555557,0)" xlink:href="#bn"/><use transform="matrix(0.03888888888888889,0,0,0.03888888888888889,30.333333333333332,0)" xlink:href="#bi"/><use transform="matrix(0.03888888888888889,0,0,0.03888888888888889,38.111111111111114,0)" xlink:href="#bc"/></g><path d="M101-234c-31-9-42 10-38 44h38v23H63V0H32v-167H5v-23h27c-7-52 17-82 69-68v24" id="bq"/><g id="V"><use transform="matrix(0.03888888888888889,0,0,0.03888888888888889,0,0)" xlink:href="#bq"/><use transform="matrix(0.03888888888888889,0,0,0.03888888888888889,3.888888888888889,0)" xlink:href="#bk"/><use transform="matrix(0.03888888888888889,0,0,0.03888888888888889,6.961111111111111,0)" xlink:href="#bg"/><use transform="matrix(0.03888888888888889,0,0,0.03888888888888889,10.033333333333333,0)" xlink:href="#bd"/></g><g id="W"><use transform="matrix(0.03888888888888889,0,0,0.03888888888888889,0,0)" xlink:href="#bp"/><use transform="matrix(0.03888888888888889,0,0,0.03888888888888889,10.072222222222223,0)" xlink:href="#be"/><use transform="matrix(0.03888888888888889,0,0,0.03888888888888889,14.700000000000001,0)" xlink:href="#bk"/><use transform="matrix(0.03888888888888889,0,0,0.03888888888888889,17.772222222222222,0)" xlink:href="#bc"/><use transform="matrix(0.03888888888888889,0,0,0.03888888888888889,21.66111111111111,0)" xlink:href="#bc"/><use transform="matrix(0.03888888888888889,0,0,0.03888888888888889,25.55,0)" xlink:href="#bd"/><use transform="matrix(0.03888888888888889,0,0,0.03888888888888889,33.327777777777776,0)" xlink:href="#bb"/></g><g id="X"><use transform="matrix(0.03888888888888889,0,0,0.03888888888888889,0,0)" xlink:href="#bc"/><use transform="matrix(0.03888888888888889,0,0,0.03888888888888889,3.888888888888889,0)" xlink:href="#bl"/></g><path d="M135-143c-3-34-86-38-87 0 15 53 115 12 119 90S17 21 10-45l28-5c4 36 97 45 98 0-10-56-113-15-118-90-4-57 82-63 122-42 12 7 21 19 24 35" id="br"/><g id="Y"><use transform="matrix(0.03888888888888889,0,0,0.03888888888888889,0,0)" xlink:href="#be"/><use transform="matrix(0.03888888888888889,0,0,0.03888888888888889,4.627777777777778,0)" xlink:href="#bd"/><use transform="matrix(0.03888888888888889,0,0,0.03888888888888889,12.405555555555555,0)" xlink:href="#br"/><use transform="matrix(0.03888888888888889,0,0,0.03888888888888889,19.405555555555555,0)" xlink:href="#bi"/><use transform="matrix(0.03888888888888889,0,0,0.03888888888888889,27.183333333333334,0)" xlink:href="#bg"/><use transform="matrix(0.03888888888888889,0,0,0.03888888888888889,30.255555555555556,0)" xlink:href="#bc"/><use transform="matrix(0.03888888888888889,0,0,0.03888888888888889,34.144444444444446,0)" xlink:href="#br"/></g><path d="M85-194c31 0 48 13 60 33l-1-100h32l1 261h-30c-2-10 0-23-3-31C134-8 116 4 85 4 32 4 16-35 15-94c0-66 23-100 70-100zm9 24c-40 0-46 34-46 75 0 40 6 74 45 74 42 0 51-32 51-76 0-42-9-74-50-73" id="bs"/><g id="Z"><use transform="matrix(0.03888888888888889,0,0,0.03888888888888889,0,0)" xlink:href="#bq"/><use transform="matrix(0.03888888888888889,0,0,0.03888888888888889,3.888888888888889,0)" xlink:href="#bl"/><use transform="matrix(0.03888888888888889,0,0,0.03888888888888889,11.666666666666666,0)" xlink:href="#bg"/><use transform="matrix(0.03888888888888889,0,0,0.03888888888888889,14.738888888888889,0)" xlink:href="#bs"/><use transform="matrix(0.03888888888888889,0,0,0.03888888888888889,22.516666666666666,0)" xlink:href="#bd"/><use transform="matrix(0.03888888888888889,0,0,0.03888888888888889,30.294444444444444,0)" xlink:href="#be"/></g><g id="aa"><use transform="matrix(0.03888888888888889,0,0,0.03888888888888889,0,0)" xlink:href="#ba"/><use transform="matrix(0.03888888888888889,0,0,0.03888888888888889,3.888888888888889,0)" xlink:href="#bb"/><use transform="matrix(0.03888888888888889,0,0,0.03888888888888889,11.666666666666666,0)" xlink:href="#bn"/><use transform="matrix(0.03888888888888889,0,0,0.03888888888888889,19.444444444444443,0)" xlink:href="#bi"/><use transform="matrix(0.03888888888888889,0,0,0.03888888888888889,27.22222222222222,0)" xlink:href="#bc"/></g><path d="M177-190C167-65 218 103 67 71c-23-6-38-20-44-43l32-5c15 47 100 32 89-28v-30C133-14 115 1 83 1 29 1 15-40 15-95c0-56 16-97 71-98 29-1 48 16 59 35 1-10 0-23 2-32h30zM94-22c36 0 50-32 50-73 0-42-14-75-50-75-39 0-46 34-46 75s6 73 46 73" id="bt"/><g id="ab"><use transform="matrix(0.03888888888888889,0,0,0.03888888888888889,0,0)" xlink:href="#bt"/><use transform="matrix(0.03888888888888889,0,0,0.03888888888888889,7.777777777777778,0)" xlink:href="#bd"/><use transform="matrix(0.03888888888888889,0,0,0.03888888888888889,15.555555555555555,0)" xlink:href="#bb"/><use transform="matrix(0.03888888888888889,0,0,0.03888888888888889,23.333333333333332,0)" xlink:href="#bd"/><use transform="matrix(0.03888888888888889,0,0,0.03888888888888889,31.11111111111111,0)" xlink:href="#be"/><use transform="matrix(0.03888888888888889,0,0,0.03888888888888889,35.73888888888889,0)" xlink:href="#bf"/><use transform="matrix(0.03888888888888889,0,0,0.03888888888888889,43.516666666666666,0)" xlink:href="#bc"/><use transform="matrix(0.03888888888888889,0,0,0.03888888888888889,47.405555555555544,0)" xlink:href="#bd"/><use transform="matrix(0.03888888888888889,0,0,0.03888888888888889,55.18333333333334,0)" xlink:href="#bs"/></g><path d="M115-194c53 0 69 39 70 98 0 66-23 100-70 100C84 3 66-7 56-30L54 0H23l1-261h32v101c10-23 28-34 59-34zm-8 174c40 0 45-34 45-75 0-40-5-75-45-74-42 0-51 32-51 76 0 43 10 73 51 73" id="bu"/><path d="M179-190L93 31C79 59 56 82 12 73V49c39 6 53-20 64-50L1-190h34L92-34l54-156h33" id="bv"/><g id="ac"><use transform="matrix(0.03888888888888889,0,0,0.03888888888888889,0,0)" xlink:href="#bu"/><use transform="matrix(0.03888888888888889,0,0,0.03888888888888889,7.777777777777778,0)" xlink:href="#bv"/></g><path d="M240 0l2-218c-23 76-54 145-80 218h-23L58-218 59 0H30v-248h44l77 211c21-75 51-140 76-211h43V0h-30" id="bw"/><path d="M30-248c87 1 191-15 191 75 0 78-77 80-158 76V0H30v-248zm33 125c57 0 124 11 124-50 0-59-68-47-124-48v98" id="bx"/><path d="M233-177c-1 41-23 64-60 70L243 0h-38l-65-103H63V0H30v-248c88 3 205-21 203 71zM63-129c60-2 137 13 137-47 0-61-80-42-137-45v92" id="by"/><path d="M205 0l-28-72H64L36 0H1l101-248h38L239 0h-34zm-38-99l-47-123c-12 45-31 82-46 123h93" id="bz"/><g id="ad"><use transform="matrix(0.03888888888888889,0,0,0.03888888888888889,0,0)" xlink:href="#bw"/><use transform="matrix(0.03888888888888889,0,0,0.03888888888888889,11.627777777777778,0)" xlink:href="#bx"/><use transform="matrix(0.03888888888888889,0,0,0.03888888888888889,20.961111111111112,0)" xlink:href="#by"/><use transform="matrix(0.03888888888888889,0,0,0.03888888888888889,31.033333333333335,0)" xlink:href="#bz"/><use transform="matrix(0.03888888888888889,0,0,0.03888888888888889,40.36666666666667,0)" xlink:href="#bj"/><use transform="matrix(0.03888888888888889,0,0,0.03888888888888889,47.36666666666667,0)" xlink:href="#bl"/><use transform="matrix(0.03888888888888889,0,0,0.03888888888888889,55.144444444444446,0)" xlink:href="#bi"/><use transform="matrix(0.03888888888888889,0,0,0.03888888888888889,62.922222222222224,0)" xlink:href="#bb"/><use transform="matrix(0.03888888888888889,0,0,0.03888888888888889,70.7,0)" xlink:href="#bc"/></g><g id="ae"><use transform="matrix(0.03888888888888889,0,0,0.03888888888888889,0,0)" xlink:href="#bq"/><use transform="matrix(0.03888888888888889,0,0,0.03888888888888889,3.888888888888889,0)" xlink:href="#bk"/><use transform="matrix(0.03888888888888889,0,0,0.03888888888888889,6.961111111111111,0)" xlink:href="#bg"/><use transform="matrix(0.03888888888888889,0,0,0.03888888888888889,10.033333333333333,0)" xlink:href="#bd"/></g></defs></g></svg>